<svg xmlns="http://www.w3.org/2000/svg" xmlns:xlink="http://www.w3.org/1999/xlink"><symbol id="discord" viewBox="0 0 30 30">
<path d="M15.3331 10.2011V15.0448H13.7148V10.2011H15.3331ZM19.7751 10.2011V15.0448H18.1568V10.2011H19.7751ZM19.7751 18.6832L22.5988 15.8484V6.9756H9.27288V18.6832H12.9113V21.1051L15.3331 18.6832H19.7751ZM24.2171 5.3573V16.6631L19.3733 21.5069H15.7349L13.3131 23.9287H10.8912V21.5069H6.44922V8.58275L7.66574 5.3573H24.2171Z" fill="white"/>
</symbol><symbol id="facebook" viewBox="0 0 30 30">
<path d="M12.075 25H15.7375V15.875H18.8L19.2625 12.325H15.7375V10.05C15.7375 9.025 16.025 8.325 17.5 8.325H19.3875V5.1375C19.0625 5.1 17.95 5 16.65 5C13.925 5 12.075 6.6625 12.075 9.7V12.325H9V15.875H12.075V25Z" fill="white"/>
</symbol><symbol id="time" viewBox="0 0 24 24">
<path d="M21.5161 2.60338C21.467 2.60139 21.4179 2.60106 21.3688 2.60244H19.5182V1.01206C19.5183 0.375912 18.911 0 18.2749 0H16.5689C15.9327 0 15.4701 0.375912 15.4701 1.01206V2.60239H8.5303V1.01206C8.5303 0.375912 8.06767 0 7.43151 0H5.72546C5.08937 0 4.48211 0.375912 4.48211 1.01206V2.60239H2.63155C1.45024 2.56945 0.465901 3.50043 0.432969 4.68169C0.431586 4.73073 0.431918 4.77988 0.43391 4.82891V21.5421C0.43391 22.8144 1.35919 23.9999 2.63149 23.9999H21.3689C22.6412 23.9999 23.5665 22.8144 23.5665 21.5421V4.82891C23.6148 3.64815 22.6968 2.65175 21.5161 2.60338ZM16.5689 1.15663H18.3616V4.33733H16.5689V1.15663ZM5.72552 1.15663H7.37373V4.33733H5.72552V1.15663ZM22.4098 21.5421C22.4098 22.1783 22.005 22.8433 21.3689 22.8433H2.63155C1.9954 22.8433 1.59059 22.1783 1.59059 21.5421V9.25302H22.4098V21.5421ZM22.4098 4.82891V8.09639H1.59054V4.82891C1.54156 4.28818 1.94022 3.8101 2.48095 3.76112C2.53098 3.75658 2.58135 3.75591 2.63149 3.75907H4.48211V4.39522C4.48211 5.03137 5.08931 5.49401 5.72546 5.49401H7.43151C8.02217 5.51023 8.51409 5.04449 8.5303 4.45383C8.53086 4.43429 8.53086 4.41476 8.5303 4.39522V3.75901H15.4701V4.39516C15.4539 4.98582 15.9196 5.47774 16.5103 5.49395C16.5298 5.49451 16.5493 5.49451 16.5689 5.49395H18.2749C18.9111 5.49395 19.5183 5.03131 19.5183 4.39516V3.75901H21.3689C21.9108 3.72486 22.3777 4.13648 22.4119 4.67837C22.415 4.72851 22.4144 4.77888 22.4098 4.82891Z"/>
<path d="M8.79079 17.1469L8.27031 20.0385C8.24972 20.1625 8.27009 20.2899 8.32837 20.4013C8.47642 20.6843 8.82587 20.7938 9.10886 20.6457L11.7112 19.2867L14.3136 20.6457L14.5739 20.7035C14.6993 20.7058 14.8218 20.6649 14.9208 20.5879C15.0937 20.4616 15.1826 20.2503 15.1522 20.0384L14.6317 17.1469L16.7426 15.1228C16.8936 14.9596 16.9484 14.7294 16.8871 14.5156C16.8092 14.318 16.6338 14.1755 16.4245 14.1397L13.5329 13.7059L12.2317 11.0746C12.175 10.9575 12.0805 10.8629 11.9633 10.8062C11.6759 10.667 11.33 10.7872 11.1908 11.0746L9.88958 13.7059L6.99801 14.1397C6.78869 14.1754 6.61324 14.318 6.53537 14.5156C6.4741 14.7294 6.52895 14.9596 6.67993 15.1228L8.79079 17.1469ZM10.3812 14.8048C10.5628 14.7776 10.7166 14.6567 10.786 14.4867L11.7112 12.6361L12.6365 14.4867C12.7059 14.6567 12.8597 14.7776 13.0413 14.8048L15.0943 15.0939L13.6196 16.5108C13.4823 16.6468 13.4178 16.84 13.4461 17.0313L13.7931 19.0843L11.9714 18.1012L11.7112 18.0433L11.451 18.1012L9.62928 19.0843L9.97625 17.0313C10.0046 16.84 9.94011 16.6468 9.80274 16.5108L8.32803 15.0939L10.3812 14.8048Z"/>
</symbol><symbol id="tools" viewBox="0 0 24 24">
<path d="M22.2271 3.81811C20.5101 3.81811 19.1134 2.42128 19.1134 0.704437V0H4.88647V0.704437C4.88647 2.42137 3.48964 3.81811 1.7728 3.81811H1.06836V8.5027C1.06836 11.869 2.08241 15.1105 4.001 17.8766C5.91959 20.6426 8.60023 22.7282 11.7531 23.9077L11.9999 24L12.2468 23.9077C15.3997 22.7282 18.0804 20.6427 19.9989 17.8766C21.9175 15.1105 22.9315 11.869 22.9315 8.5027V3.81811H22.2271ZM21.5227 8.5027H21.5226C21.5226 11.5807 20.5954 14.5444 18.8412 17.0736C17.1373 19.5302 14.7758 21.3998 11.9999 22.4932C9.224 21.3997 6.86248 19.5302 5.15862 17.0736C3.40442 14.5445 2.47723 11.5807 2.47723 8.5027V5.17223C4.40802 4.86895 5.93731 3.33966 6.24059 1.40887H17.7593C18.0626 3.33966 19.5919 4.86895 21.5227 5.17223V8.5027Z"/>
<path d="M15.1431 6.61816L10.4801 11.2812L8.85633 9.6574L5.86768 12.6461L10.4801 17.2586L18.1318 9.60687L15.1431 6.61816ZM7.86014 12.6462L8.85638 11.65L10.4802 13.2738L15.1432 8.61073L16.1394 9.60697L10.4802 15.2662L7.86014 12.6462Z"/>
</symbol><symbol id="trophy" viewBox="0 0 24 24">
<path fill-rule="evenodd" clip-rule="evenodd" d="M7.5 21.75C7.5 21.3358 7.83579 21 8.25 21H15.75C16.1642 21 16.5 21.3358 16.5 21.75C16.5 22.1642 16.1642 22.5 15.75 22.5H8.25C7.83579 22.5 7.5 22.1642 7.5 21.75Z"/>
<path fill-rule="evenodd" clip-rule="evenodd" d="M12 15C12.4142 15 12.75 15.3358 12.75 15.75V21.75C12.75 22.1642 12.4142 22.5 12 22.5C11.5858 22.5 11.25 22.1642 11.25 21.75V15.75C11.25 15.3358 11.5858 15 12 15Z"/>
<path fill-rule="evenodd" clip-rule="evenodd" d="M17.2443 1.5C17.6421 1.5 18.0236 1.65804 18.305 1.93934C18.5862 2.22057 18.7442 2.60199 18.7443 2.99971C18.7443 2.9998 18.7443 2.9999 18.7443 3H17.9943L18.7443 2.99882C18.7443 2.99911 18.7443 2.99941 18.7443 2.99971C18.7462 4.19036 18.7499 8.12642 18.7499 10.5C18.7499 12.3412 17.5695 13.8489 16.2425 14.853C14.9172 15.8559 13.2616 16.5 11.998 16.5C10.7344 16.5 9.07931 15.8559 7.75437 14.8529C6.42778 13.8487 5.24805 12.341 5.24805 10.5C5.24805 9.78186 5.24957 8.26716 5.25109 6.75346L5.25109 6.75276C5.25262 5.2388 5.25414 3.72597 5.25414 3.00984L5.25414 3.0075C5.25538 2.61049 5.41397 2.23016 5.69514 1.94987C5.97618 1.6697 6.35679 1.51233 6.75361 1.51219L6.75327 1.51219L6.75414 2.26219L6.75414 1.51219L17.2443 1.5ZM17.2443 3L6.75414 3.01219C6.75414 3.72998 6.75262 5.24141 6.75109 6.75271L6.75109 6.75497C6.74957 8.26917 6.74805 9.78283 6.74805 10.5C6.74805 11.6721 7.51363 12.7894 8.65969 13.6569C9.8074 14.5257 11.1523 15 11.998 15C12.8438 15 14.1892 14.5257 15.3374 13.6568C16.484 12.7892 17.2499 11.6719 17.2499 10.5C17.2499 8.12667 17.2462 4.19004 17.2443 3.00118V3Z"/>
<path fill-rule="evenodd" clip-rule="evenodd" d="M1.5 4.5C1.5 4.08579 1.83579 3.75 2.25 3.75H6C6.41421 3.75 6.75 4.08579 6.75 4.5C6.75 4.91421 6.41421 5.25 6 5.25H3C3 6.40413 3.35361 7.56912 3.93078 8.42701C4.51071 9.28902 5.2442 9.75 6 9.75C6.41421 9.75 6.75 10.0858 6.75 10.5C6.75 10.9142 6.41421 11.25 6 11.25C4.57846 11.25 3.43695 10.3802 2.68622 9.26431C1.93272 8.14432 1.5 6.68431 1.5 5.25V4.5Z"/>
<path fill-rule="evenodd" clip-rule="evenodd" d="M17.25 4.5C17.25 4.08579 17.5858 3.75 18 3.75H21.75C22.1642 3.75 22.5 4.08579 22.5 4.5V5.25C22.5 6.68431 22.0673 8.14432 21.3138 9.26431C20.5631 10.3802 19.4215 11.25 18 11.25C17.5858 11.25 17.25 10.9142 17.25 10.5C17.25 10.0858 17.5858 9.75 18 9.75C18.7558 9.75 19.4893 9.28902 20.0692 8.42701C20.6464 7.56912 21 6.40413 21 5.25H18C17.5858 5.25 17.25 4.91421 17.25 4.5Z"/>
</symbol><symbol id="twitter" viewBox="0 0 30 30">
<path d="M25.4973 8.29304C24.8991 9.16804 24.1759 9.91357 23.3276 10.5296C23.3366 10.6546 23.341 10.8421 23.341 11.0921C23.341 12.2529 23.1714 13.4136 22.8321 14.5743C22.4928 15.7261 21.975 16.8332 21.2785 17.8957C20.591 18.9582 19.7696 19.9002 18.8142 20.7216C17.8589 21.5341 16.7071 22.1859 15.3589 22.677C14.0107 23.1591 12.5687 23.4002 11.033 23.4002C8.61335 23.4002 6.39907 22.7529 4.39014 21.4582C4.70264 21.4939 5.05085 21.5118 5.43478 21.5118C7.44371 21.5118 9.23389 20.8957 10.8053 19.6636C9.86782 19.6457 9.02853 19.36 8.28746 18.8064C7.54639 18.2439 7.03746 17.5296 6.76067 16.6636C7.05532 16.7082 7.32764 16.7305 7.57764 16.7305C7.96157 16.7305 8.34103 16.6814 8.71603 16.5832C7.71603 16.3779 6.88567 15.8823 6.22496 15.0966C5.57317 14.302 5.24728 13.3823 5.24728 12.3377V12.2841C5.85442 12.6234 6.50621 12.8064 7.20264 12.8332C6.61335 12.4404 6.1446 11.927 5.79639 11.293C5.44817 10.6591 5.27407 9.97161 5.27407 9.23054C5.27407 8.44482 5.47049 7.71715 5.86335 7.0475C6.94371 8.37786 8.25621 9.44482 9.80085 10.2484C11.3544 11.043 13.0151 11.485 14.783 11.5743C14.7116 11.235 14.6759 10.9046 14.6759 10.5832C14.6759 9.38679 15.0955 8.36893 15.9348 7.52965C16.783 6.68143 17.8053 6.25732 19.0017 6.25732C20.2517 6.25732 21.3053 6.71268 22.1625 7.6234C23.1357 7.4359 24.0509 7.08768 24.908 6.57875C24.5776 7.60554 23.9437 8.40018 23.0062 8.96268C23.8366 8.8734 24.6669 8.65018 25.4973 8.29304Z" fill="white"/>
</symbol><symbol id="vk" viewBox="0 0 30 30">
<path d="M27.3418 8.34917C27.5182 7.76313 27.3418 7.33337 26.5075 7.33337H23.7436C23.0404 7.33337 22.719 7.70516 22.5426 8.1135C22.5426 8.1135 21.1373 11.5402 19.1461 13.7621C18.5033 14.4087 18.2097 14.6128 17.8593 14.6128C17.6841 14.6128 17.4296 14.4087 17.4296 13.8226V8.34917C17.4296 7.64593 17.2267 7.33337 16.6406 7.33337H12.2977C11.8591 7.33337 11.5944 7.65853 11.5944 7.96856C11.5944 8.634 12.59 8.78775 12.6921 10.6631V14.7313C12.6921 15.6223 12.5321 15.7849 12.1792 15.7849C11.2428 15.7849 8.96418 12.3456 7.61189 8.4084C7.34849 7.64341 7.08257 7.33463 6.3768 7.33463H3.61424C2.82404 7.33463 2.6665 7.70642 2.6665 8.11476C2.6665 8.84825 3.6029 12.4779 7.02838 17.2783C9.31203 20.5564 12.527 22.3334 15.4559 22.3334C17.2115 22.3334 17.4283 21.9389 17.4283 21.2583V18.7806C17.4283 17.9917 17.5959 17.8329 18.1517 17.8329C18.5601 17.8329 19.2633 18.0396 20.9029 19.6187C22.7757 21.4915 23.0858 22.3321 24.1381 22.3321H26.9007C27.6896 22.3321 28.0841 21.9376 27.8572 21.1588C27.6089 20.3837 26.7141 19.2557 25.5269 17.9211C24.8817 17.1599 23.9176 16.3407 23.6239 15.9311C23.2143 15.403 23.3328 15.1699 23.6239 14.701C23.6252 14.7023 26.9914 9.96108 27.3418 8.34917Z" fill="white"/>
</symbol></svg>